<?xml version="1.0" encoding="utf-8"?>
<!-- Generator: Adobe Illustrator 24.3.0, SVG Export Plug-In . SVG Version: 6.00 Build 0)  -->
<svg version="1.1" id="Layer_1" xmlns="http://www.w3.org/2000/svg" xmlns:xlink="http://www.w3.org/1999/xlink" x="0px" y="0px"
	 viewBox="0 0 598 421" style="enable-background:new 0 0 598 421;" xml:space="preserve">
<style type="text/css">
	.st0{fill:#2B587C;}
	.st1{fill:#005220;}
	.st2{fill:#016733;}
</style>
<g transform="translate(0.000000,421.000000) scale(0.100000,-0.100000)">
	<g>
		<circle class="st0" cx="4600.6" cy="3556.8" r="180"/>
	</g>
	<path class="st0" d="M2875,3478c-29,15-152,22-205,13c-304.2-50.4-537.4-288.7-605-581c-58.8,0.8-177.2,3.3-236,5
		c-127.3,380.4-349.4,577.2-811,563c-239,3-247,3-267-17c-21-21-21-26-21-705v-685c23.5-37.1,23.5-37.1,295-39
		c456.8-16.2,695.6,196.9,807,578c78.2,0,156.4,0,234.6,0c9.1-29.4,41-101.1,43.3-106.2c91.2-204.3,257.2-323.6,257.2-323.6
		c213.2-151,441.7-136.2,502.9-130.2c0,87,0,262,0,349c-179.9-14.7-350.1,39.5-410,206c16.8,7,336.4,4.6,410,5c0,74.8,0,225.2,0,300
		c-68.7,0.8-408.9-9-408.9,5c0,23,39.9,93,78.9,132c101,129.9,322.8,54.7,400,185C3000,3315,2970,3429,2875,3478z M1050,2361
		c0,196.4,0,591.6,0,788c72.4,11.3,170.4-3,240-36C1696.7,2914.8,1490.7,2289.4,1050,2361z"/>
	<path class="st0" d="M3840,3450c-162-43-299-136-407-277c-58-76-97.8-215.3-123-245c-10.7-12.5-14-18-175-18h-175v-150v-150h90
		c91,0,91,0,79-22c-21-38-109-125-139-138l-30-12v-184c0-101,4-184,8-184c5,0,35,9,68,20c93,32,193,97,272,177c63,65,81,91,137,209
		l65,134h225h225v150v150h-145c-80,0-145,4-145,8c0,16,56,86,95,121c143,125,373,123,514-4l41-37v209v210l-72,23
		C4144,3473,3946,3478,3840,3450z"/>
	<path class="st0" d="M4420,3136v-226h-170h-170v-150v-150h170h170v-241v-240l33,22c114,80,226,238,268,379l24,80h118h117v150v149
		l-121,3c-1.4,0-115.3,2.9-116.7,2.9l-4.3,0.1c-9,25-18,50-27,75c-2.4,6.8-5.9,16.3-10.5,27.6c-0.2,0.4-1.4,3.5-2.8,6.8
		c0,0-7.4,18-16.6,37.3c-11.6,24.3-29.4,58-35.1,67.3c-41,66-136,169-193,210l-33,22V3136z"/>
	<path class="st1" d="M4280,2445c-61-65-203-107-314-94c-100,11-176-58-176-161c0-71,27-116,90-148c41-21,55-23,170-20
		c99,3,140,9,198,28l72,24v198c0,109-4,198-8,198C4307,2470,4293,2459,4280,2445z"/>
	<path class="st0" d="M3800,1926c-132-32-248-97-304-170c-42-56-83-152-97-228c-25-140,31-320,128-410c25-24,51-48,58-54
		c18-18,124-65,180-80c76-21,283-18,378,5c122,29,117,17,117,268c0,255,1,253-103,253c-106,0-107-2-107-191v-159h-100
		c-141,0-212,21-270,80c-145,145-85,432,101,484c106,29,251,29,406,0c46-9,73,22,73,84c0,27-6,56-12,65
		C4213,1919,3918,1954,3800,1926z"/>
	<path class="st0" d="M747,1902c-14-15-17-49-19-213l-3-194l-40-20c-48-23-162-32-195-15c-12,6-24,9-27,6c-8-7,14-141,29-178
		c18-47,81-45,201,6l37,16v-148c0-180,1-182,103-182c106,0,107,1,107,219v180l58,17c78,25,209,24,282-2l55-19l3-179
		c3-218,2-216,104-216c116,0,108-34,108,468c0,505,7,472-104,472c-106,0-106,1-106-199v-163l-22,6c-70,21-175,28-259,17
		c-49-6-95-14-104-17c-13-5-15,14-15,155c0,198-2,201-108,201C778,1920,759,1916,747,1902z"/>
	<path class="st0" d="M1616,1898c-14-20-16-80-16-454c0-405,1-432,18-447s58-17,380-17h361l15,22c10,13,16,43,16,73c0,41-5,56-23,73
		c-23,21-30,22-285,22h-262v100v100h223c221,0,224,0,245,23c30,32,31,113,1,151l-20,26h-225h-224v80v80h263c263,0,264,0,285,23
		c30,32,31,114,2,145c-21,22-23,22-380,22h-359L1616,1898z"/>
	<path class="st0" d="M2436,1898c-14-20-16-80-16-454c0-405,1-432,18-447c16-15,48-17,244-17c124,0,251,5,284,11
		c268,51,436,311,368,573c-45,174-162,291-339,336c-67,17-111,20-311,20C2455,1920,2451,1920,2436,1898z M2951,1719
		c43-9,62-21,103-63c139-140,107-372-64-462c-29-15-65-19-197-22l-163-4v281v281h135C2838,1730,2923,1725,2951,1719z"/>
	<path class="st0" d="M4339,1913c-10-2-20-14-23-26s-6-214-6-449c0-375,2-428,16-442c13-14,61-16,374-16c415,0,390-6,390,94
		c0,99,10,96-298,96h-262v101v101l43-6c188-26,394-9,430,35c23,29,23,109-1,139c-18,23-19,23-140,11c-116-11-151-9-299,15l-33,5v79
		v80h263c263,0,264,0,285,23c30,32,31,114,2,145c-21,22-23,22-373,21C4513,1918,4348,1916,4339,1913z"/>
</g>
<rect x="182.9" y="129.5" class="st0" width="24" height="30.5"/>
<polygon class="st1" points="206.6,160 183.2,160 182.9,129.5 206.6,129.5 "/>
<path class="st0" d="M207.2,162.9"/>
<path class="st0" d="M208.1,167.2"/>
<rect x="408" y="130" class="st1" width="34" height="30"/>
<rect x="474.5" y="129.4" class="st1" width="24" height="30.7"/>
<path class="st2" d="M487.7,130.3"/>
<path class="st2" d="M468.2,118.1"/>
<path class="st0" d="M465.5,109.7c6.5,12.5,9.7,19.4,8.8,20.1c-0.3,0.2-0.9-0.5-1.4-0.8c-7.6-5.3-12.4-8.2-12.1-8.8
	c0.2-0.4,1.9,0.8,2.4,0.1c0.4-0.6-0.3-2.3-1.1-3.6"/>
<path class="st0" d="M136,198.5"/>
<path class="st0" d="M473.4,125.9c1.5,4.6,2.7,10.4,2.9,17.2c0.2,7.6-1,14.1-2.4,19.1"/>
</svg>
